<?xml version="1.0" standalone="no"?><!DOCTYPE svg PUBLIC "-//W3C//DTD SVG 1.1//EN" "http://www.w3.org/Graphics/SVG/1.1/DTD/svg11.dtd"><svg t="1610876120236" class="icon" viewBox="0 0 1097 1024" version="1.1" xmlns="http://www.w3.org/2000/svg" p-id="11673" xmlns:xlink="http://www.w3.org/1999/xlink" width="214.2578125" height="200"><defs><style type="text/css"></style></defs><path d="M62.70177 719.339868C-35.724001 547.286791 20.95037 304.678786 205.347816 149.96269 376.687662 6.219368 603.494875-15.781042 757.003965 83.522552a125.309065 125.309065 0 0 1 10.588726-10.314407 76.809409 76.809409 0 1 1 97.218766 115.87248l-2.084827 1.645916c108.301267 172.601715 53.382539 423.000389-135.404015 581.556955-175.564364 147.309474-409.449015 166.841009-562.903241 58.92379-1.097277 1.097277-2.359146 2.084827-3.456424 3.017512a76.53509 76.53509 0 1 1-98.316044-114.775203z" fill="#FFFFFF" p-id="11674"></path><path d="M63.524728 775.630192C-34.901043 603.577115 21.773328 360.96911 206.170774 206.253015c171.339846-143.743323 398.147059-165.743732 551.656149-66.440139a125.309065 125.309065 0 0 1 10.588726-10.314407 76.809409 76.809409 0 1 1 97.218766 115.87248l-2.084827 1.645916c108.356131 172.601715 53.382539 423.000389-135.404015 581.556955-175.564364 147.309474-409.449015 166.841009-562.903242 58.92379-1.097277 1.097277-2.359146 2.084827-3.456423 3.017512a76.53509 76.53509 0 1 1-98.316044-114.775202z" fill="#FFE22A" p-id="11675"></path><path d="M75.210731 929.523329a174.960861 174.960861 0 0 1 107.478309-30.614035c99.96196 0.274319 102.705153 181.489661 607.946474-83.502801 217.370628-113.952245 90.744831-501.949489 92.939385-565.372115 1.097277-32.150224 27.431932-190.871382-21.561499-59.307837-42.300039 113.403606-127.009844 364.78983-238.054304 468.866579-264.004912 247.271434-666.815399 129.149535-548.748365 269.930209z" fill="#FFB544" p-id="11676"></path><path d="M393.69546 971.27473a414.606218 414.606218 0 0 1-227.300987-64.684496A97.767405 97.767405 0 0 1 32.965556 899.841979a84.984125 84.984125 0 0 1-17.885619-69.622243 109.727727 109.727727 0 0 1 29.297303-57.661921 411.917889 411.917889 0 0 1-30.504308-291.875754 549.351867 549.351867 0 0 1 182.641802-286.279641C365.824617 52.414741 594.05829 22.788254 756.51019 120.28134l2.907785-2.468874a113.732789 113.732789 0 0 1 72.4203-27.431932h0.274319a83.118753 83.118753 0 0 1 83.941712 99.96196 111.977146 111.977146 0 0 1-31.601586 59.582156c104.570524 180.556975 43.561908 431.943199-145.389238 590.225446a572.778737 572.778737 0 0 1-144.40169 88.824595 527.24173 527.24173 0 0 1-153.893137 39.831165 456.467346 456.467346 0 0 1-47.073195 2.468874z m-229.33095-103.692703l10.149814 7.132303a390.246662 390.246662 0 0 0 263.017363 63.587218 524.11449 524.11449 0 0 0 281.561348-121.633186 516.817596 516.817596 0 0 0 174.137904-277.062512 373.074273 373.074273 0 0 0-41.751401-284.359405l-7.296893-11.686003 10.972772-8.668491 1.645916-1.371596a82.295796 82.295796 0 0 0 29.022984-48.444792 52.12067 52.12067 0 0 0-53.601995-63.861537h-0.274319a82.295796 82.295796 0 0 0-52.504718 20.02531 78.455325 78.455325 0 0 0-9.052537 8.778218l-8.778218 9.765768-10.972773-7.132302a396.720598 396.720598 0 0 0-259.28662-55.631958A535.306718 535.306718 0 0 0 44.322376 487.924091a379.109298 379.109298 0 0 0 32.918318 279.805704l6.309344 10.972773-9.601176 8.394171a61.392663 61.392663 0 1 0 78.455325 91.29347l3.017513-2.633466z" fill="#333333" p-id="11677"></path><path d="M532.116988 217.335515a286.773415 286.773415 0 0 1-197.180726-123.279102 3.236968 3.236968 0 0 1 0.548638-4.5537 274.703365 274.703365 0 0 1 418.227233 51.187984 3.236968 3.236968 0 0 1-0.548638 4.553701A286.060185 286.060185 0 0 1 532.116988 217.335515z" fill="#8CCA01" p-id="11678"></path><path d="M564.267212 234.782224a285.292091 285.292091 0 0 1-34.070459-2.084827 302.135297 302.135297 0 0 1-207.604861-129.478718 18.59885 18.59885 0 0 1 3.182105-25.676289 290.010383 290.010383 0 0 1 440.337369 54.09577 18.59885 18.59885 0 0 1-3.182104 25.676288 311.736473 311.736473 0 0 1-198.66205 77.467776zM354.632389 94.166141a257.092065 257.092065 0 0 0 379.657937 46.524556 257.092065 257.092065 0 0 0-379.657937-46.524556z" fill="#333333" p-id="11679"></path><path d="M675.311672 159.399275a130.246812 130.246812 0 0 1-16.459159-0.98755 588.963577 588.963577 0 0 1-98.041724-24.963058 15.416746 15.416746 0 1 1 9.326856-29.40703 573.985742 573.985742 0 0 0 92.116428 23.756053 190.597062 190.597062 0 0 0 75.657268-10.314407 15.47161 15.47161 0 0 1 9.217129 29.516759 244.80256 244.80256 0 0 1-71.816798 12.399233z" fill="#333333" p-id="11680"></path><path d="M435.062813 685.049953a323.696796 323.696796 0 1 0 323.696796-323.696796 323.696796 323.696796 0 0 0-323.696796 323.696796z" fill="#FFC544" p-id="11681"></path><path d="M758.704745 1023.998903a338.94895 338.94895 0 1 1 239.70022-99.24873 336.809259 336.809259 0 0 1-239.70022 99.24873z m0-647.119272a308.115458 308.115458 0 1 0 308.115458 308.115458 308.499505 308.499505 0 0 0-308.115458-308.115458z" fill="#333333" p-id="11682"></path><path d="M510.884673 686.476413a247.820072 247.820072 0 1 0 247.820072-247.820072 247.820072 247.820072 0 0 0-247.820072 247.820072z" fill="#FFE22A" p-id="11683"></path><path d="M758.704745 949.822959a263.346546 263.346546 0 1 1 263.346546-263.346546 263.346546 263.346546 0 0 1-263.346546 263.346546z m0-495.804736a232.45819 232.45819 0 1 0 232.45819 232.45819 232.73251 232.73251 0 0 0-232.45819-232.45819z" fill="#FFFFFF" p-id="11684"></path><path d="M514.176504 671.937489h479.016394v30.888356H514.176504z" fill="#FFFFFF" p-id="11685"></path><path d="M578.915864 847.062942l338.729494-338.729494 21.945545 21.945545-338.839222 338.729495z" fill="#FFFFFF" p-id="11686"></path><path d="M578.915864 530.278993l21.945545-21.945545 338.729494 338.729494-21.945545 21.945546z" fill="#FFFFFF" p-id="11687"></path><path d="M742.245586 441.948173h30.888355v479.016394h-30.888355z" fill="#FFFFFF" p-id="11688"></path></svg>